<?xml version="1.0" encoding="UTF-8"?>
<!DOCTYPE svg PUBLIC "-//W3C//DTD SVG 1.1//EN" "http://www.w3.org/Graphics/SVG/1.1/DTD/svg11.dtd">
<!-- Creator: CorelDRAW 2021 (64-Bit) -->
<svg xmlns="http://www.w3.org/2000/svg" xml:space="preserve" width="229.259mm" height="142.103mm" version="1.1" style="shape-rendering:geometricPrecision; text-rendering:geometricPrecision; image-rendering:optimizeQuality; fill-rule:evenodd; clip-rule:evenodd"
viewBox="0 0 4846.96 3004.32"
 xmlns:xlink="http://www.w3.org/1999/xlink"
 xmlns:xodm="http://www.corel.com/coreldraw/odm/2003">
 <defs>
  <style type="text/css">
   <![CDATA[
    .fil1 {fill:#46AF6A}
    .fil0 {fill:#FE6225}
    .fil3 {fill:#333333;fill-rule:nonzero}
    .fil2 {fill:#FE6225;fill-rule:nonzero}
   ]]>
  </style>
 </defs>
 <g id="Layer_x0020_1">
  <metadata id="CorelCorpID_0Corel-Layer"/>
  <path class="fil0" d="M3078.58 1980.23l0 3.73c0.49,-0.53 0.98,-1.07 1.48,-1.6 -0.49,-0.71 -0.99,-1.42 -1.48,-2.13z"/>
  <path class="fil0" d="M3445.9 1478.78l151.68 -1238.87c7.72,-63.01 -10.07,-120.24 -52.14,-167.77 -42.07,-47.54 -96.71,-72.14 -160.19,-72.14l-2048.22 0c-63.48,0 -118.11,24.61 -160.19,72.14 -42.06,47.54 -59.85,104.76 -52.13,167.77l153.78 1256.02 177.54 0c97.52,0 184.51,20.97 254.63,61.72l-94.6 -813.78c-7.16,-61.61 37.39,-117.9 99.02,-125.06 61.62,-7.16 117.9,37.4 125.06,99.01l96.69 831.81c75.98,-53.06 171.86,-71.28 263.23,-71.28 15.91,0 32.06,0.46 48.28,1.49l0 -748.32c0,-62.03 50.75,-112.79 112.79,-112.79 62.04,0 112.8,50.76 112.8,112.79l0 817.53c2.82,1.97 5.61,3.98 8.36,6.05 34.79,26.11 61.06,57.75 79.31,93.42l212.62 -122.12c5.15,-3.12 10.1,-5.95 14.9,-8.52l93 -800.05c7.16,-61.61 63.44,-106.17 125.06,-99.01 61.63,7.16 106.18,63.45 99.02,125.06l-88.93 765c39.49,18.84 61.3,57.64 61.3,112.16l0 7.68c16.82,-25.38 37.96,-48.42 63.56,-68.51 78.01,-61.24 180.32,-81.84 277.51,-81.84 8.68,0 17.44,0.14 26.24,0.43z"/>
  <path class="fil1" d="M1007.76 2014.72l15.14 9.25 3.51 6.64 -36.99 -2.58c-114.98,-23.98 -182.67,-46.92 -331.62,-7.81 -109.99,28.88 -265.49,111.8 -315.8,201.44 153.03,-71.48 238.09,-130.33 392.48,-130.75 120.58,-0.33 237.99,32.87 328.99,69.3 38.09,15.25 197.48,87.4 228.41,112.77 31.31,25.68 36.34,65.71 14.36,88.07 -55.61,56.59 -113.78,-14.64 -159.97,-44.6 -36.55,-23.72 -107.2,-76.86 -141.73,-88.37 -31.69,27.19 -61.61,66.46 -99.56,100 -218.23,192.88 -403.39,233.1 -675.83,170.07 -51.31,-11.87 -190.5,-66 -229.14,-94.21 4.11,-30.79 42.44,-101.79 63.73,-140.15 25.31,-45.64 55.3,-88.28 88.47,-131.6 133.13,-173.88 370.07,-354.14 596.99,-300.93 85.98,20.16 226.98,107.26 258.57,183.46zm22.77 -159.7c-38.4,-172.37 -57.36,-325.4 -212.98,-464.95 104.34,267.81 85.03,159.22 137.37,453.84 -1.89,-0.34 -5.67,-2.72 -5.64,-1.22l-16.26 -3.81c-117.9,-32.28 -249.71,-165.01 -292.68,-295.28 -58.29,-176.74 1.34,-341.09 1.69,-415.72 65.47,-6.66 508.3,184.63 480.43,511.55 -5.22,61.21 -38.03,161.61 -91.94,215.59z"/>
  <path class="fil1" d="M3839.2 2014.72l-15.14 9.25 -3.51 6.64 36.99 -2.58c114.98,-23.98 182.67,-46.92 331.62,-7.81 109.99,28.88 265.49,111.8 315.8,201.44 -153.03,-71.48 -238.09,-130.33 -392.48,-130.75 -120.58,-0.33 -237.99,32.87 -328.99,69.3 -38.09,15.25 -197.48,87.4 -228.41,112.77 -31.3,25.68 -36.34,65.71 -14.36,88.07 55.61,56.59 113.78,-14.64 159.97,-44.6 36.55,-23.72 107.2,-76.86 141.73,-88.37 31.69,27.19 61.61,66.46 99.56,100 218.23,192.88 403.39,233.1 675.83,170.07 51.31,-11.87 190.51,-66 229.14,-94.21 -4.11,-30.79 -42.44,-101.79 -63.73,-140.15 -25.31,-45.64 -55.3,-88.28 -88.47,-131.6 -133.13,-173.88 -370.07,-354.14 -596.99,-300.93 -85.98,20.16 -226.98,107.26 -258.57,183.46zm-22.77 -159.7c38.4,-172.37 57.36,-325.4 212.98,-464.95 -104.34,267.81 -85.03,159.22 -137.37,453.84 1.89,-0.34 5.67,-2.72 5.64,-1.22l16.26 -3.81c117.9,-32.28 249.71,-165.01 292.68,-295.28 58.3,-176.74 -1.34,-341.09 -1.69,-415.72 -65.47,-6.66 -508.3,184.63 -480.43,511.55 5.22,61.21 38.03,161.61 91.94,215.59z"/>
  <path class="fil2" d="M1456.04 1571.78l-286.08 0c-37.52,0 -50.41,12.9 -50.41,49.24l0 733.96c0,36.35 12.9,49.24 50.41,49.24l286.08 0c230.97,0 359.95,-126.63 359.95,-328.29l0 -175.87c0,-202.84 -128.97,-328.29 -359.95,-328.29zm127.8 331.81l0 168.83c0,83.25 -41.04,126.63 -136.01,126.63l-96.14 0 0 -422.09 96.14 0c94.97,0 136.01,43.38 136.01,126.63zm300.84 -98.49c0,87.94 35.17,146.56 87.94,182.9 -55.11,34 -116.07,97.31 -116.07,194.63 0,144.21 97.32,239.18 343.53,239.18 246.22,0 344.7,-107.87 344.7,-261.46 0,-102.01 -46.9,-160.63 -110.21,-198.15 39.87,-34 83.25,-87.94 83.25,-172.35 0,-150.08 -110.21,-235.67 -317.74,-235.67 -194.63,0 -315.39,91.45 -315.39,250.91zm403.33 4.69c0,39.86 -23.45,65.66 -50.42,83.25l-35.17 -9.38c-52.76,-15.24 -83.25,-31.66 -83.25,-73.87 0,-38.69 25.8,-62.14 82.07,-62.14 58.62,0 86.76,23.45 86.76,62.14zm15.24 352.91c0,39.87 -29.31,68 -104.35,68 -77.38,0 -110.21,-25.79 -110.21,-70.35 0,-45.73 30.48,-71.52 58.62,-90.28 104.35,30.48 155.94,37.52 155.94,92.62zm650.24 -590.92l-70.35 0c-30.48,0 -43.38,3.52 -70.35,19.93l-228.63 131.32c-31.66,19.93 -41.04,35.17 -23.45,68l55.11 99.66c17.59,32.83 37.52,41.04 76.21,19.93l78.56 -44.55 0 488.92c0,36.35 12.9,49.24 50.41,49.24l132.49 0c37.52,0 49.24,-12.9 49.24,-49.24l0 -733.96c0,-36.35 -11.73,-49.24 -49.24,-49.24zm150.77 233.32c0,87.94 35.17,146.56 87.94,182.9 -55.11,34 -116.07,97.31 -116.07,194.63 0,144.21 97.32,239.18 343.53,239.18 246.22,0 344.7,-107.87 344.7,-261.46 0,-102.01 -46.9,-160.63 -110.21,-198.15 39.87,-34 83.25,-87.94 83.25,-172.35 0,-150.08 -110.21,-235.67 -317.74,-235.67 -194.63,0 -315.39,91.45 -315.39,250.91zm403.33 4.69c0,39.86 -23.45,65.66 -50.42,83.25l-35.17 -9.38c-52.76,-15.24 -83.25,-31.66 -83.25,-73.87 0,-38.69 25.8,-62.14 82.07,-62.14 58.62,0 86.76,23.45 86.76,62.14zm15.24 352.91c0,39.87 -29.31,68 -104.35,68 -77.38,0 -110.21,-25.79 -110.21,-70.35 0,-45.73 30.48,-71.52 58.62,-90.28 104.35,30.48 155.94,37.52 155.94,92.62z"/>
  <path class="fil3" d="M763.92 2803.41l-33.8 0 0 129.59 -18.63 0 0 -129.59 -20.22 0 0 -15.7 20.22 0 0 -10.11c0,-15.79 4.04,-27.41 12.11,-34.86 8.07,-7.45 21.15,-11.18 39.25,-11.18l0 15.97c-12.06,0 -20.54,2.31 -25.41,6.92 -4.88,4.61 -7.32,12.33 -7.32,23.15l0 10.11 33.8 0 0 15.7zm92.87 131.72c-13.66,0 -25.95,-3.06 -36.85,-9.18 -10.91,-6.12 -19.51,-14.81 -25.81,-26.08 -6.3,-11.26 -9.45,-24.44 -9.45,-39.52 0,-15.08 3.19,-28.25 9.58,-39.52 6.38,-11.26 15.08,-19.96 26.08,-26.08 11,-6.12 23.33,-9.18 36.99,-9.18 13.66,0 26.03,3.06 37.12,9.18 11.09,6.12 19.78,14.81 26.08,26.08 6.3,11.26 9.45,24.44 9.45,39.52 0,14.9 -3.19,28.03 -9.58,39.38 -6.39,11.35 -15.17,20.09 -26.34,26.21 -11.18,6.12 -23.59,9.18 -37.25,9.18zm0 -16.23c9.58,0 18.45,-2.17 26.61,-6.52 8.16,-4.34 14.77,-10.91 19.82,-19.69 5.06,-8.78 7.59,-19.56 7.59,-32.33 0,-12.77 -2.48,-23.55 -7.45,-32.33 -4.97,-8.78 -11.53,-15.34 -19.69,-19.69 -8.16,-4.35 -17.03,-6.52 -26.61,-6.52 -9.58,0 -18.45,2.17 -26.61,6.52 -8.16,4.35 -14.68,10.91 -19.56,19.69 -4.88,8.78 -7.32,19.56 -7.32,32.33 0,12.77 2.44,23.55 7.32,32.33 4.88,8.78 11.35,15.35 19.43,19.69 8.07,4.35 16.9,6.52 26.48,6.52zm170.84 16.23c-13.66,0 -25.95,-3.06 -36.85,-9.18 -10.91,-6.12 -19.51,-14.81 -25.81,-26.08 -6.3,-11.26 -9.45,-24.44 -9.45,-39.52 0,-15.08 3.19,-28.25 9.58,-39.52 6.38,-11.26 15.08,-19.96 26.08,-26.08 11,-6.12 23.33,-9.18 36.99,-9.18 13.66,0 26.03,3.06 37.12,9.18 11.09,6.12 19.78,14.81 26.08,26.08 6.3,11.26 9.45,24.44 9.45,39.52 0,14.9 -3.19,28.03 -9.58,39.38 -6.39,11.35 -15.17,20.09 -26.34,26.21 -11.18,6.12 -23.59,9.18 -37.25,9.18zm0 -16.23c9.58,0 18.45,-2.17 26.61,-6.52 8.16,-4.34 14.77,-10.91 19.82,-19.69 5.06,-8.78 7.59,-19.56 7.59,-32.33 0,-12.77 -2.48,-23.55 -7.45,-32.33 -4.97,-8.78 -11.53,-15.34 -19.69,-19.69 -8.16,-4.35 -17.03,-6.52 -26.61,-6.52 -9.58,0 -18.45,2.17 -26.61,6.52 -8.16,4.35 -14.68,10.91 -19.56,19.69 -4.88,8.78 -7.32,19.56 -7.32,32.33 0,12.77 2.44,23.55 7.32,32.33 4.88,8.78 11.35,15.35 19.43,19.69 8.07,4.35 16.9,6.52 26.48,6.52zm98.72 -58.81c0,-14.9 3.01,-27.99 9.05,-39.25 6.03,-11.26 14.33,-19.96 24.88,-26.08 10.56,-6.12 22.49,-9.18 35.79,-9.18 12.77,0 24.3,3.1 34.59,9.31 10.29,6.21 17.83,14.28 22.62,24.22l0 -83.02 18.63 0 0 196.91 -18.63 0 0 -32.47c-4.44,10.11 -11.71,18.41 -21.82,24.88 -10.11,6.48 -22,9.71 -35.66,9.71 -13.3,0 -25.23,-3.11 -35.79,-9.31 -10.55,-6.21 -18.8,-14.99 -24.75,-26.34 -5.94,-11.35 -8.91,-24.48 -8.91,-39.38zm126.93 0.27c0,-11.71 -2.4,-22 -7.18,-30.87 -4.79,-8.87 -11.31,-15.7 -19.56,-20.49 -8.25,-4.79 -17.34,-7.18 -27.28,-7.18 -10.29,0 -19.52,2.3 -27.67,6.92 -8.16,4.61 -14.59,11.31 -19.29,20.09 -4.7,8.78 -7.05,19.2 -7.05,31.27 0,11.89 2.35,22.31 7.05,31.27 4.7,8.96 11.13,15.79 19.29,20.49 8.16,4.7 17.38,7.05 27.67,7.05 9.93,0 19.03,-2.4 27.28,-7.18 8.25,-4.79 14.77,-11.62 19.56,-20.49 4.79,-8.87 7.18,-19.16 7.18,-30.87zm191.33 -56.95l-33.8 0 0 129.59 -18.63 0 0 -129.59 -20.22 0 0 -15.7 20.22 0 0 -10.11c0,-15.79 4.04,-27.41 12.11,-34.86 8.07,-7.45 21.15,-11.18 39.25,-11.18l0 15.97c-12.06,0 -20.54,2.31 -25.41,6.92 -4.88,4.61 -7.32,12.33 -7.32,23.15l0 10.11 33.8 0 0 15.7zm92.87 131.72c-13.66,0 -25.95,-3.06 -36.85,-9.18 -10.91,-6.12 -19.51,-14.81 -25.81,-26.08 -6.3,-11.26 -9.45,-24.44 -9.45,-39.52 0,-15.08 3.19,-28.25 9.58,-39.52 6.38,-11.26 15.08,-19.96 26.08,-26.08 11,-6.12 23.33,-9.18 36.99,-9.18 13.66,0 26.03,3.06 37.12,9.18 11.09,6.12 19.78,14.81 26.08,26.08 6.3,11.26 9.45,24.44 9.45,39.52 0,14.9 -3.19,28.03 -9.58,39.38 -6.39,11.35 -15.17,20.09 -26.34,26.21 -11.18,6.12 -23.59,9.18 -37.25,9.18zm0 -16.23c9.58,0 18.45,-2.17 26.61,-6.52 8.16,-4.34 14.77,-10.91 19.82,-19.69 5.06,-8.78 7.59,-19.56 7.59,-32.33 0,-12.77 -2.48,-23.55 -7.45,-32.33 -4.97,-8.78 -11.53,-15.34 -19.69,-19.69 -8.16,-4.35 -17.03,-6.52 -26.61,-6.52 -9.58,0 -18.45,2.17 -26.61,6.52 -8.16,4.35 -14.68,10.91 -19.56,19.69 -4.88,8.78 -7.32,19.56 -7.32,32.33 0,12.77 2.44,23.55 7.32,32.33 4.88,8.78 11.35,15.35 19.43,19.69 8.07,4.35 16.9,6.52 26.48,6.52zm125.87 -105.38c4.08,-9.05 10.33,-16.06 18.76,-21.02 8.43,-4.97 18.76,-7.45 31,-7.45l0 19.43 -5.06 0c-13.48,0 -24.3,3.64 -32.46,10.91 -8.16,7.27 -12.24,19.43 -12.24,36.45l0 81.16 -18.63 0 0 -145.29 18.63 0 0 25.81zm229.11 119.48l-59.87 -65.2 0 65.2 -18.63 0 0 -196.91 18.63 0 0 116.55 58.54 -64.93 26.08 0 -68.92 72.38 69.45 72.91 -25.28 0zm58.54 -172.7c-3.73,0 -6.92,-1.33 -9.58,-3.99 -2.66,-2.66 -3.99,-5.94 -3.99,-9.85 0,-3.9 1.33,-7.14 3.99,-9.71 2.66,-2.57 5.85,-3.86 9.58,-3.86 3.73,0 6.92,1.29 9.58,3.86 2.66,2.57 3.99,5.81 3.99,9.71 0,3.9 -1.33,7.18 -3.99,9.85 -2.66,2.66 -5.85,3.99 -9.58,3.99zm9.32 27.41l0 145.29 -18.63 0 0 -145.29 18.63 0zm110.43 -2.66c17.38,0 31.58,5.37 42.58,16.1 11,10.73 16.5,26.3 16.5,46.7l0 85.15 -18.36 0 0 -83.02c0,-15.79 -3.95,-27.85 -11.84,-36.19 -7.89,-8.34 -18.67,-12.51 -32.33,-12.51 -14.01,0 -25.19,4.44 -33.53,13.3 -8.34,8.87 -12.51,21.91 -12.51,39.12l0 79.3 -18.63 0 0 -145.29 18.63 0 0 24.75c4.61,-8.87 11.26,-15.66 19.96,-20.36 8.69,-4.7 18.54,-7.05 29.54,-7.05zm161.26 0.53c13.66,0 25.55,3.19 35.66,9.58 10.11,6.39 17.38,14.46 21.82,24.22l0 -31.67 18.63 0 0 149.02c0,13.3 -2.88,25.1 -8.65,35.39 -5.77,10.29 -13.79,18.23 -24.08,23.82 -10.29,5.59 -22,8.38 -35.13,8.38 -18.63,0 -34.11,-4.44 -46.43,-13.3 -12.33,-8.87 -20,-20.93 -23.02,-36.19l18.36 0c3.19,10.11 9.27,18.18 18.23,24.22 8.96,6.03 19.91,9.05 32.86,9.05 9.4,0 17.83,-2 25.28,-5.99 7.45,-3.99 13.31,-9.89 17.56,-17.7 4.26,-7.81 6.39,-17.03 6.39,-27.67l0 -35.92c-4.61,9.93 -11.93,18.14 -21.95,24.62 -10.02,6.48 -21.86,9.71 -35.52,9.71 -13.3,0 -25.23,-3.11 -35.79,-9.31 -10.55,-6.21 -18.8,-14.99 -24.75,-26.34 -5.94,-11.35 -8.91,-24.48 -8.91,-39.38 0,-14.9 2.97,-27.99 8.91,-39.25 5.94,-11.26 14.19,-19.96 24.75,-26.08 10.56,-6.12 22.49,-9.18 35.79,-9.18zm57.48 74.77c0,-11.71 -2.4,-22 -7.18,-30.87 -4.79,-8.87 -11.31,-15.7 -19.56,-20.49 -8.25,-4.79 -17.34,-7.18 -27.28,-7.18 -10.29,0 -19.52,2.3 -27.67,6.92 -8.16,4.61 -14.59,11.31 -19.29,20.09 -4.7,8.78 -7.05,19.2 -7.05,31.27 0,11.89 2.35,22.31 7.05,31.27 4.7,8.96 11.13,15.79 19.29,20.49 8.16,4.7 17.38,7.05 27.67,7.05 9.93,0 19.03,-2.4 27.28,-7.18 8.25,-4.79 14.77,-11.62 19.56,-20.49 4.79,-8.87 7.18,-19.16 7.18,-30.87zm111.23 74.77c-16.68,0 -30.29,-3.86 -40.85,-11.58 -10.56,-7.72 -16.45,-18.23 -17.7,-31.53l19.16 0c0.89,8.16 4.74,14.77 11.58,19.82 6.83,5.06 16.01,7.58 27.54,7.58 10.11,0 18.05,-2.4 23.82,-7.18 5.77,-4.79 8.65,-10.73 8.65,-17.83 0,-4.97 -1.6,-9.05 -4.79,-12.24 -3.19,-3.19 -7.23,-5.72 -12.11,-7.58 -4.88,-1.86 -11.49,-3.86 -19.82,-5.99 -10.82,-2.84 -19.6,-5.68 -26.34,-8.52 -6.74,-2.84 -12.46,-7.05 -17.16,-12.64 -4.7,-5.59 -7.05,-13.08 -7.05,-22.48 0,-7.1 2.13,-13.66 6.39,-19.69 4.26,-6.03 10.29,-10.82 18.09,-14.37 7.81,-3.55 16.68,-5.32 26.61,-5.32 15.61,0 28.21,3.95 37.79,11.84 9.58,7.89 14.72,18.76 15.43,32.6l-18.63 0c-0.53,-8.51 -3.86,-15.39 -9.98,-20.62 -6.12,-5.23 -14.5,-7.85 -25.15,-7.85 -9.4,0 -17.03,2.22 -22.88,6.65 -5.85,4.44 -8.78,9.93 -8.78,16.5 0,5.68 1.73,10.33 5.19,13.97 3.46,3.64 7.76,6.48 12.9,8.52 5.14,2.04 12.06,4.3 20.75,6.78 10.47,2.84 18.81,5.59 25.01,8.25 6.21,2.66 11.53,6.56 15.97,11.71 4.43,5.14 6.74,11.97 6.92,20.49 0,7.81 -2.13,14.77 -6.39,20.89 -4.26,6.12 -10.2,10.95 -17.83,14.5 -7.63,3.55 -16.41,5.32 -26.34,5.32zm150.08 -75.04c0,-14.9 2.97,-27.99 8.91,-39.25 5.94,-11.26 14.19,-19.96 24.75,-26.08 10.56,-6.12 22.49,-9.18 35.79,-9.18 13.84,0 25.77,3.19 35.79,9.58 10.02,6.39 17.25,14.55 21.69,24.48l0 -31.93 18.63 0 0 145.29 -18.63 0 0 -32.2c-4.61,9.93 -11.93,18.14 -21.95,24.62 -10.02,6.48 -21.95,9.71 -35.79,9.71 -13.13,0 -24.97,-3.11 -35.52,-9.31 -10.55,-6.21 -18.8,-14.99 -24.75,-26.34 -5.94,-11.35 -8.91,-24.48 -8.91,-39.38zm126.93 0.27c0,-11.71 -2.4,-22 -7.18,-30.87 -4.79,-8.87 -11.31,-15.7 -19.56,-20.49 -8.25,-4.79 -17.34,-7.18 -27.28,-7.18 -10.29,0 -19.52,2.3 -27.67,6.92 -8.16,4.61 -14.59,11.31 -19.29,20.09 -4.7,8.78 -7.05,19.2 -7.05,31.27 0,11.89 2.35,22.31 7.05,31.27 4.7,8.96 11.13,15.79 19.29,20.49 8.16,4.7 17.38,7.05 27.67,7.05 9.93,0 19.03,-2.4 27.28,-7.18 8.25,-4.79 14.77,-11.62 19.56,-20.49 4.79,-8.87 7.18,-19.16 7.18,-30.87zm129.33 -75.31c17.38,0 31.58,5.37 42.58,16.1 11,10.73 16.5,26.3 16.5,46.7l0 85.15 -18.36 0 0 -83.02c0,-15.79 -3.95,-27.85 -11.84,-36.19 -7.89,-8.34 -18.67,-12.51 -32.33,-12.51 -14.01,0 -25.19,4.44 -33.53,13.3 -8.34,8.87 -12.51,21.91 -12.51,39.12l0 79.3 -18.63 0 0 -145.29 18.63 0 0 24.75c4.61,-8.87 11.26,-15.66 19.96,-20.36 8.69,-4.7 18.54,-7.05 29.54,-7.05zm91.81 75.04c0,-14.9 3.01,-27.99 9.05,-39.25 6.03,-11.26 14.33,-19.96 24.88,-26.08 10.56,-6.12 22.49,-9.18 35.79,-9.18 12.77,0 24.3,3.1 34.59,9.31 10.29,6.21 17.83,14.28 22.62,24.22l0 -83.02 18.63 0 0 196.91 -18.63 0 0 -32.47c-4.44,10.11 -11.71,18.41 -21.82,24.88 -10.11,6.48 -22,9.71 -35.66,9.71 -13.3,0 -25.23,-3.11 -35.79,-9.31 -10.55,-6.21 -18.8,-14.99 -24.75,-26.34 -5.94,-11.35 -8.91,-24.48 -8.91,-39.38zm126.93 0.27c0,-11.71 -2.4,-22 -7.18,-30.87 -4.79,-8.87 -11.31,-15.7 -19.56,-20.49 -8.25,-4.79 -17.34,-7.18 -27.28,-7.18 -10.29,0 -19.52,2.3 -27.67,6.92 -8.16,4.61 -14.59,11.31 -19.29,20.09 -4.7,8.78 -7.05,19.2 -7.05,31.27 0,11.89 2.35,22.31 7.05,31.27 4.7,8.96 11.13,15.79 19.29,20.49 8.16,4.7 17.38,7.05 27.67,7.05 9.93,0 19.03,-2.4 27.28,-7.18 8.25,-4.79 14.77,-11.62 19.56,-20.49 4.79,-8.87 7.18,-19.16 7.18,-30.87zm125.6 -0.27c0,-14.9 3.01,-27.99 9.05,-39.25 6.03,-11.26 14.33,-19.96 24.88,-26.08 10.56,-6.12 22.49,-9.18 35.79,-9.18 13.66,0 25.55,3.24 35.66,9.71 10.11,6.48 17.3,14.59 21.55,24.35l0 -31.93 18.63 0 0 213.94 -18.63 0 0 -100.59c-4.26,9.76 -11.49,17.87 -21.69,24.35 -10.2,6.48 -22.22,9.71 -36.06,9.71 -13.13,0 -24.97,-3.11 -35.52,-9.31 -10.55,-6.21 -18.8,-14.99 -24.75,-26.34 -5.94,-11.35 -8.91,-24.48 -8.91,-39.38zm126.93 0.27c0,-11.71 -2.4,-22 -7.18,-30.87 -4.79,-8.87 -11.31,-15.7 -19.56,-20.49 -8.25,-4.79 -17.34,-7.18 -27.28,-7.18 -10.29,0 -19.52,2.3 -27.67,6.92 -8.16,4.61 -14.59,11.31 -19.29,20.09 -4.7,8.78 -7.05,19.2 -7.05,31.27 0,11.89 2.35,22.31 7.05,31.27 4.7,8.96 11.13,15.79 19.29,20.49 8.16,4.7 17.38,7.05 27.67,7.05 9.93,0 19.03,-2.4 27.28,-7.18 8.25,-4.79 14.77,-11.62 19.56,-20.49 4.79,-8.87 7.18,-19.16 7.18,-30.87zm187.07 -72.65l0 145.29 -18.63 0 0 -25.55c-4.26,9.05 -10.82,15.97 -19.69,20.75 -8.87,4.79 -18.81,7.19 -29.8,7.19 -17.38,0 -31.58,-5.37 -42.58,-16.1 -11,-10.73 -16.5,-26.3 -16.5,-46.7l0 -84.89 18.36 0 0 82.76c0,15.79 3.95,27.85 11.84,36.19 7.89,8.34 18.67,12.51 32.33,12.51 14.01,0 25.19,-4.44 33.53,-13.3 8.34,-8.87 12.51,-21.91 12.51,-39.12l0 -79.03 18.63 0zm174.03 65.2c0,6.38 -0.18,11.26 -0.53,14.63l-120.54 0c0.53,11 3.19,20.4 7.98,28.21 4.79,7.81 11.09,13.7 18.89,17.7 7.81,3.99 16.32,5.99 25.55,5.99 12.06,0 22.22,-2.93 30.47,-8.78 8.25,-5.85 13.7,-13.75 16.37,-23.68l19.69 0c-3.55,14.19 -11.13,25.77 -22.75,34.73 -11.62,8.96 -26.21,13.44 -43.77,13.44 -13.66,0 -25.9,-3.06 -36.72,-9.18 -10.82,-6.12 -19.29,-14.81 -25.41,-26.08 -6.12,-11.26 -9.18,-24.44 -9.18,-39.52 0,-15.08 3.01,-28.3 9.05,-39.65 6.03,-11.35 14.46,-20.05 25.28,-26.08 10.82,-6.03 23.15,-9.05 36.99,-9.05 13.84,0 25.95,3.01 36.32,9.05 10.38,6.03 18.36,14.15 23.95,24.35 5.59,10.2 8.38,21.51 8.38,33.93zm-18.89 -0.53c0.18,-10.82 -2,-20.05 -6.52,-27.67 -4.52,-7.63 -10.69,-13.39 -18.49,-17.3 -7.81,-3.9 -16.32,-5.85 -25.55,-5.85 -13.84,0 -25.63,4.43 -35.39,13.3 -9.76,8.87 -15.17,21.38 -16.23,37.52l102.18 0zm184.41 0.53c0,6.38 -0.18,11.26 -0.53,14.63l-120.54 0c0.53,11 3.19,20.4 7.98,28.21 4.79,7.81 11.09,13.7 18.89,17.7 7.81,3.99 16.32,5.99 25.55,5.99 12.06,0 22.22,-2.93 30.47,-8.78 8.25,-5.85 13.7,-13.75 16.37,-23.68l19.69 0c-3.55,14.19 -11.13,25.77 -22.75,34.73 -11.62,8.96 -26.21,13.44 -43.77,13.44 -13.66,0 -25.9,-3.06 -36.72,-9.18 -10.82,-6.12 -19.29,-14.81 -25.41,-26.08 -6.12,-11.26 -9.18,-24.44 -9.18,-39.52 0,-15.08 3.01,-28.3 9.05,-39.65 6.03,-11.35 14.46,-20.05 25.28,-26.08 10.82,-6.03 23.15,-9.05 36.99,-9.05 13.84,0 25.95,3.01 36.32,9.05 10.38,6.03 18.36,14.15 23.95,24.35 5.59,10.2 8.38,21.51 8.38,33.93zm-18.89 -0.53c0.18,-10.82 -2,-20.05 -6.52,-27.67 -4.52,-7.63 -10.69,-13.39 -18.49,-17.3 -7.81,-3.9 -16.32,-5.85 -25.55,-5.85 -13.84,0 -25.63,4.43 -35.39,13.3 -9.76,8.87 -15.17,21.38 -16.23,37.52l102.18 0zm121.08 -67.32c17.38,0 31.58,5.37 42.58,16.1 11,10.73 16.5,26.3 16.5,46.7l0 85.15 -18.36 0 0 -83.02c0,-15.79 -3.95,-27.85 -11.84,-36.19 -7.89,-8.34 -18.67,-12.51 -32.33,-12.51 -14.01,0 -25.19,4.44 -33.53,13.3 -8.34,8.87 -12.51,21.91 -12.51,39.12l0 79.3 -18.63 0 0 -145.29 18.63 0 0 24.75c4.61,-8.87 11.26,-15.66 19.96,-20.36 8.69,-4.7 18.54,-7.05 29.54,-7.05zm150.35 150.08c-16.68,0 -30.29,-3.86 -40.85,-11.58 -10.56,-7.72 -16.45,-18.23 -17.7,-31.53l19.16 0c0.89,8.16 4.74,14.77 11.58,19.82 6.83,5.06 16.01,7.58 27.54,7.58 10.11,0 18.05,-2.4 23.82,-7.18 5.77,-4.79 8.65,-10.73 8.65,-17.83 0,-4.97 -1.6,-9.05 -4.79,-12.24 -3.19,-3.19 -7.23,-5.72 -12.11,-7.58 -4.88,-1.86 -11.49,-3.86 -19.82,-5.99 -10.82,-2.84 -19.6,-5.68 -26.34,-8.52 -6.74,-2.84 -12.46,-7.05 -17.16,-12.64 -4.7,-5.59 -7.05,-13.08 -7.05,-22.48 0,-7.1 2.13,-13.66 6.39,-19.69 4.26,-6.03 10.29,-10.82 18.09,-14.37 7.81,-3.55 16.68,-5.32 26.61,-5.32 15.61,0 28.21,3.95 37.79,11.84 9.58,7.89 14.72,18.76 15.43,32.6l-18.63 0c-0.53,-8.51 -3.86,-15.39 -9.98,-20.62 -6.12,-5.23 -14.5,-7.85 -25.15,-7.85 -9.4,0 -17.03,2.22 -22.88,6.65 -5.85,4.44 -8.78,9.93 -8.78,16.5 0,5.68 1.73,10.33 5.19,13.97 3.46,3.64 7.76,6.48 12.9,8.52 5.14,2.04 12.06,4.3 20.75,6.78 10.47,2.84 18.81,5.59 25.01,8.25 6.21,2.66 11.53,6.56 15.97,11.71 4.43,5.14 6.74,11.97 6.92,20.49 0,7.81 -2.13,14.77 -6.39,20.89 -4.26,6.12 -10.2,10.95 -17.83,14.5 -7.63,3.55 -16.41,5.32 -26.34,5.32z"/>
 </g>
</svg>
